<svg xmlns="http://www.w3.org/2000/svg" viewBox="0 0 64 64" width="64" height="64" role="img" aria-label="Cornell Deep">
  <defs>
    <linearGradient id="fav" x1="0" y1="0" x2="1" y2="1">
      <stop offset="0" stop-color="#0f766e"/>
      <stop offset="0.55" stop-color="#0e7490"/>
      <stop offset="1" stop-color="#1d4ed8"/>
    </linearGradient>
  </defs>
  <rect width="64" height="64" rx="14" fill="url(#fav)"/>
  <path d="M32 9.5 50 16v15c0 11-8 19.5-18 24.5C22 50.5 14 42 14 31V16z" fill="#ffffff" fill-opacity="0.14" stroke="#ffffff" stroke-opacity="0.5" stroke-width="1.6"/>
  <path d="M32 13.5 33.6 17 37 18.4 33.6 19.8 32 23.3 30.4 19.8 27 18.4 30.4 17z" fill="#ffffff"/>
  <path d="M20 29.5c3.6-1.9 8.5-1.9 12 .3v13.6c-3.5-2.2-8.4-2.2-12-.3z" fill="#ffffff"/>
  <path d="M44 29.5c-3.6-1.9-8.5-1.9-12 .3v13.6c3.5-2.2 8.4-2.2 12-.3z" fill="#ffffff" fill-opacity="0.78"/>
  <path d="M20 48.5c2.2-1.5 4.4-1.5 6.6 0s4.4 1.5 6.6 0 4.4-1.5 6.6 0 2.2 1 3.2.6" fill="none" stroke="#ffffff" stroke-opacity="0.62" stroke-width="2.1" stroke-linecap="round"/>
</svg>
